<?xml version="1.0" standalone="no"?>
<!DOCTYPE svg PUBLIC "-//W3C//DTD SVG 20010904//EN"
 "http://www.w3.org/TR/2001/REC-SVG-20010904/DTD/svg10.dtd">
<svg version="1.0" xmlns="http://www.w3.org/2000/svg"
 width="198.000000pt" height="152.000000pt" viewBox="0 0 198.000000 152.000000"
 preserveAspectRatio="xMidYMid meet">

<g transform="translate(0.000000,152.000000) scale(0.100000,-0.100000)"
fill="#000000" stroke="none">
<path d="M627 943 c-4 -3 -7 -10 -7 -15 0 -4 167 -8 371 -8 292 0 370 3 367
13 -4 9 -87 13 -365 15 -197 1 -362 -1 -366 -5z"/>
<path d="M600 871 c0 -6 154 -10 390 -11 257 0 390 3 390 10 0 7 -134 10 -390
10 -237 0 -390 -4 -390 -9z"/>
<path d="M738 823 c145 -2 262 -7 260 -11 -2 -4 -10 -19 -18 -35 -12 -24 -11
-32 3 -62 14 -30 22 -35 50 -35 18 0 39 6 45 12 10 10 15 10 22 -2 7 -11 10
-7 10 18 0 30 -2 32 -32 31 -24 -1 -27 -3 -10 -6 40 -8 16 -43 -30 -43 -46 0
-66 70 -30 103 21 19 57 22 67 7 3 -5 11 -10 17 -10 7 0 6 5 -2 15 -11 13 14
15 201 18 118 1 -18 2 -301 2 -283 0 -397 -1 -252 -2z"/>
<path d="M329 806 c6 -7 20 -38 30 -67 25 -76 41 -73 72 11 26 67 26 70 7 70
-10 0 -16 -4 -13 -10 8 -13 -27 -123 -36 -113 -12 14 -39 105 -33 114 3 5 -5
9 -17 9 -17 0 -19 -3 -10 -14z"/>
<path d="M523 766 c25 -19 21 -34 -10 -38 -20 -2 -29 -9 -31 -24 -4 -25 14
-34 49 -27 22 4 24 8 20 46 -3 40 -14 57 -36 57 -5 -1 -2 -7 8 -14z m17 -60
c0 -16 -27 -29 -41 -20 -19 11 -9 34 16 34 15 0 25 -6 25 -14z"/>
<path d="M658 760 c26 -25 28 -43 6 -64 -19 -19 -26 -20 -42 -4 -15 15 -15 51
0 66 9 9 8 12 -7 12 -18 0 -20 -7 -20 -67 l0 -68 -60 -6 c-33 -3 172 -5 455
-5 l515 1 -436 2 c-366 3 -439 6 -449 18 -13 16 -4 39 11 29 17 -10 59 25 59
51 0 25 -23 55 -43 55 -6 0 -1 -9 11 -20z"/>
<path d="M738 768 c-29 -22 -27 -72 3 -88 16 -9 26 -8 45 5 31 20 32 59 2 79
-27 19 -30 19 -50 4z m46 -14 c9 -8 16 -22 16 -29 0 -14 -26 -45 -39 -45 -27
0 -41 56 -19 78 16 16 23 15 42 -4z"/>
<path d="M1160 770 c-12 -8 -10 -10 10 -8 16 2 25 -3 28 -14 2 -12 -5 -17 -25
-20 -20 -2 -29 -9 -31 -24 -4 -25 14 -34 49 -27 22 4 24 8 20 46 -4 52 -21 67
-51 47z m40 -64 c0 -18 -30 -30 -43 -17 -5 5 -6 14 -3 20 10 16 46 13 46 -3z"/>
<path d="M1326 755 c14 -21 15 -31 6 -50 -10 -22 -9 -25 6 -25 15 0 17 7 14
38 -4 38 -17 62 -33 62 -5 0 -2 -11 7 -25z"/>
<path d="M1365 770 c-4 -6 -3 -10 2 -9 29 5 35 -3 31 -41 -3 -32 0 -40 13 -40
14 0 15 7 9 41 -9 49 -39 75 -55 49z"/>
<path d="M1478 769 c-12 -6 -18 -22 -18 -44 0 -42 26 -60 62 -45 20 9 20 10 2
7 -26 -5 -54 9 -54 28 0 10 11 15 35 15 39 0 48 22 16 40 -23 12 -22 12 -43
-1z m42 -14 c11 -13 8 -15 -19 -15 -31 0 -42 14 -18 23 20 9 24 8 37 -8z"/>
<path d="M1585 766 c-16 -12 -17 -16 -6 -30 7 -9 19 -16 27 -16 18 0 28 -20
16 -32 -8 -8 -16 -7 -27 2 -8 7 -18 10 -21 7 -10 -9 34 -27 50 -21 25 10 19
43 -9 54 -14 5 -25 14 -25 19 0 17 20 23 35 11 9 -7 15 -8 15 -2 0 5 -7 13
-16 16 -20 8 -17 8 -39 -8z"/>
<path d="M840 760 c8 -5 11 -21 8 -44 -3 -31 -1 -36 17 -35 11 0 14 3 8 6 -7
2 -13 18 -13 34 0 22 6 32 23 38 18 7 16 9 -17 9 -23 0 -34 -3 -26 -8z"/>
<path d="M1258 763 c6 -2 12 -20 12 -38 0 -18 -6 -36 -12 -38 -7 -3 -4 -6 8
-6 17 -1 20 4 16 29 -2 17 0 36 6 43 8 10 5 13 -16 14 -15 1 -21 -1 -14 -4z"/>
<path d="M630 585 c0 -32 95 -135 160 -173 52 -30 136 -52 200 -52 64 0 148
22 200 52 65 38 160 141 160 173 0 3 -162 5 -360 5 -198 0 -360 -2 -360 -5z"/>
</g>
</svg>
